<svg t="1722595280953" class="icon" viewBox="0 0 1024 1024" version="1.1" xmlns="http://www.w3.org/2000/svg" p-id="4394" width="32" height="32"><path d="M128 384v256q0 12.608 1.28 25.088 1.216 12.544 3.648 24.832 2.432 12.352 6.08 24.384t8.448 23.68q4.864 11.584 10.752 22.72 5.952 11.072 12.928 21.504 7.04 10.496 14.976 20.224 8 9.728 16.896 18.56 8.896 8.96 18.56 16.896 9.728 8 20.224 14.976 10.432 7.04 21.504 12.928 11.136 5.888 22.72 10.688 11.648 4.864 23.68 8.512 12.032 3.648 24.32 6.08 12.352 2.432 24.896 3.712Q371.392 896 384 896h256q12.608 0 25.088-1.28 12.544-1.216 24.832-3.648 12.352-2.432 24.384-6.08t23.68-8.512q11.584-4.8 22.72-10.688 11.072-5.952 21.504-12.928 10.496-7.04 20.224-14.976 9.728-8 18.56-16.896 8.96-8.832 16.896-18.56 8-9.728 14.976-20.224 7.04-10.432 12.928-21.504 5.888-11.136 10.688-22.72 4.864-11.648 8.512-23.68 3.648-12.032 6.08-24.32 2.432-12.352 3.712-24.896Q896 652.608 896 640V384q0-12.608-1.28-25.088-1.216-12.544-3.648-24.832-2.432-12.352-6.08-24.384t-8.512-23.68q-4.8-11.584-10.688-22.72-5.952-11.072-12.928-21.504-7.04-10.496-14.976-20.224-8-9.664-16.896-18.56-8.832-8.96-18.56-16.896-9.728-8-20.224-14.976-10.432-7.04-21.504-12.928-11.136-5.888-22.72-10.752-11.648-4.8-23.68-8.448-12.032-3.648-24.32-6.08-12.352-2.432-24.896-3.712Q652.608 128 640 128H384q-12.608 0-25.088 1.28-12.544 1.216-24.832 3.648-12.352 2.432-24.384 6.08t-23.68 8.448q-11.584 4.864-22.72 10.752-11.072 5.952-21.504 12.928-10.496 7.04-20.224 14.976-9.664 8-18.56 16.896-8.96 8.896-16.896 18.56-8 9.728-14.976 20.224-7.04 10.432-12.928 21.504-5.888 11.136-10.752 22.72-4.8 11.648-8.448 23.68-3.648 12.032-6.08 24.32-2.432 12.352-3.712 24.896Q128 371.392 128 384z m566.016 166.336H330.112a38.4 38.4 0 0 1 0-76.8h363.904a38.4 38.4 0 0 1 0 76.8z" p-id="4395"></path></svg>
