<svg t="1722595535853" class="icon" viewBox="0 0 1024 1024" version="1.1" xmlns="http://www.w3.org/2000/svg" p-id="4551" width="32" height="32"><path d="M640 128H384c-170.496 0-256 85.504-256 256v256c0 170.496 85.504 256 256 256h256c170.496 0 256-85.504 256-256V384c0-170.496-85.504-256-256-256z m67.584 302.592c-2.048 4.608-4.608 8.704-8.192 12.288L506.88 634.88c-3.584 3.584-7.68 6.144-12.288 8.192-4.608 2.048-9.728 3.072-14.848 3.072s-10.24-1.024-14.848-3.072c-4.608-2.048-8.704-4.608-12.288-8.192l-96.256-96.256c-3.584-3.584-6.144-7.68-8.192-12.288-2.048-4.608-3.072-9.728-3.072-14.848 0-2.56 0-5.12 1.024-7.68 0.512-2.56 1.024-5.12 2.048-7.168 1.024-2.56 2.048-4.608 3.584-6.656 1.536-2.048 3.072-4.096 4.608-5.632 1.536-2.048 3.584-3.584 5.632-4.608 2.048-1.536 4.096-2.56 6.656-3.584 2.56-1.024 4.608-1.536 7.168-2.048 2.56-0.512 5.12-0.512 7.68-0.512 5.12 0 10.24 1.024 14.848 3.072 4.608 2.048 8.704 4.608 12.288 8.192l69.12 68.608L645.12 389.12c3.584-3.584 7.68-6.144 12.288-8.192 4.608-2.048 9.728-3.072 14.848-3.072 2.56 0 5.12 0 7.68 0.512s5.12 1.024 7.168 2.048c2.56 1.024 4.608 2.048 6.656 3.584 2.048 1.536 4.096 3.072 5.632 4.608 1.536 1.536 3.584 3.584 4.608 5.632 1.536 2.048 2.56 4.096 3.584 6.656 1.024 2.56 1.536 4.608 2.048 7.168 0.512 2.56 1.024 5.12 1.024 7.68 0 5.12-1.024 10.24-3.072 14.848z" p-id="4552"></path></svg>
