<svg t="1724122015492" class="icon" viewBox="0 0 1024 1024" version="1.1" xmlns="http://www.w3.org/2000/svg" p-id="4237" width="32" height="32"><path d="M401.472 316.992l159.04 217.664L591.488 512l-30.976-22.656-159.04 217.728q-2.24 3.008-3.84 6.464-1.6 3.456-2.496 7.104-0.896 3.648-1.024 7.424-0.192 3.84 0.384 7.552 0.64 3.712 1.92 7.296 1.28 3.52 3.2 6.784 1.984 3.2 4.544 6.016 2.56 2.752 5.632 4.992 3.072 2.24 6.464 3.84 3.456 1.6 7.168 2.496 3.648 0.896 7.424 1.024 3.776 0.192 7.488-0.448 3.776-0.576 7.296-1.856 3.584-1.28 6.784-3.264 3.2-1.92 6.016-4.48 2.816-2.56 5.056-5.632l159.04-217.728q3.584-4.928 5.504-10.752 1.92-5.76 1.92-11.904 0-6.08-1.92-11.904-1.92-5.76-5.504-10.752L463.488 271.68q-2.24-3.072-5.056-5.632-2.752-2.56-6.016-4.48-3.2-1.984-6.784-3.328-3.52-1.28-7.296-1.856-3.712-0.576-7.488-0.448-3.84 0.192-7.424 1.088-3.712 0.896-7.168 2.496-3.392 1.6-6.4 3.84-3.136 2.176-5.696 4.992-2.56 2.752-4.48 6.016-1.984 3.2-3.264 6.784-1.28 3.52-1.92 7.296-0.576 3.712-0.384 7.488 0.128 3.84 1.024 7.488 0.896 3.648 2.496 7.04 1.6 3.456 3.84 6.528z m30.976-61.056q-3.776 0-7.488 0.704-3.712 0.768-7.168 2.24-3.52 1.408-6.656 3.52-3.2 2.112-5.824 4.8-2.688 2.624-4.8 5.76-2.112 3.2-3.52 6.656-1.472 3.52-2.176 7.232-0.768 3.712-0.768 7.488 0 3.776 0.768 7.488 0.704 3.712 2.176 7.232 1.408 3.456 3.52 6.592 2.112 3.2 4.8 5.824 2.688 2.688 5.76 4.8 3.2 2.112 6.72 3.52 3.456 1.472 7.168 2.176 3.712 0.768 7.488 0.768 3.84 0 7.488-0.768 3.712-0.704 7.232-2.176 3.456-1.408 6.592-3.52 3.2-2.112 5.824-4.8 2.688-2.688 4.8-5.76 2.112-3.2 3.52-6.656 1.472-3.52 2.24-7.232 0.704-3.712 0.704-7.488 0-3.84-0.704-7.488-0.768-3.712-2.24-7.232-1.408-3.456-3.52-6.592-2.112-3.2-4.8-5.824-2.624-2.688-5.76-4.8-3.2-2.112-6.656-3.52-3.52-1.472-7.232-2.24Q436.224 256 432.448 256z m0 435.392q-3.776 0-7.488 0.704-3.712 0.768-7.168 2.176-3.52 1.472-6.656 3.584-3.2 2.112-5.824 4.736-2.688 2.688-4.8 5.824-2.112 3.2-3.52 6.656-1.472 3.52-2.176 7.232-0.768 3.712-0.768 7.488 0 3.776 0.768 7.488 0.704 3.712 2.176 7.168 1.408 3.52 3.52 6.656 2.112 3.2 4.8 5.76 2.688 2.752 5.76 4.8 3.2 2.112 6.72 3.584 3.456 1.472 7.168 2.176 3.712 0.768 7.488 0.768 3.84 0 7.488-0.768 3.712-0.704 7.232-2.176 3.456-1.472 6.592-3.584 3.2-2.048 5.824-4.736 2.688-2.688 4.8-5.824 2.112-3.2 3.52-6.656 1.472-3.456 2.24-7.168 0.704-3.712 0.704-7.488 0-3.84-0.704-7.488-0.768-3.712-2.24-7.232-1.408-3.52-3.52-6.656-2.112-3.136-4.8-5.76-2.624-2.688-5.76-4.8-3.2-2.112-6.656-3.584-3.52-1.408-7.232-2.176-3.712-0.704-7.488-0.704z" p-id="4238"></path></svg>
