<svg t="1744798692576" class="icon" viewBox="0 0 1024 1024" version="1.1" xmlns="http://www.w3.org/2000/svg" p-id="6606" width="200" height="200"><path d="M855.296 894.528H168.768v-76.8h686.528v76.8z m38.4-38.4q0 3.84-0.768 7.488-0.704 3.712-2.176 7.232-1.472 3.52-3.52 6.656-2.112 3.136-4.8 5.76-2.688 2.688-5.824 4.8-3.2 2.112-6.656 3.584-3.456 1.408-7.168 2.176-3.712 0.704-7.488 0.704-3.84 0-7.488-0.704-3.712-0.768-7.232-2.176-3.52-1.472-6.656-3.584-3.136-2.112-5.76-4.736-2.688-2.688-4.8-5.824-2.112-3.2-3.584-6.656-1.408-3.52-2.176-7.232-0.704-3.648-0.704-7.488 0-3.776 0.704-7.488 0.768-3.712 2.176-7.168 1.472-3.52 3.584-6.656 2.112-3.136 4.736-5.76 2.688-2.752 5.824-4.8 3.2-2.112 6.656-3.584 3.52-1.472 7.232-2.176 3.712-0.768 7.488-0.768 3.776 0 7.488 0.768 3.712 0.704 7.168 2.176 3.52 1.472 6.656 3.584 3.2 2.048 5.76 4.736 2.752 2.688 4.864 5.824 2.048 3.2 3.52 6.656 1.472 3.456 2.176 7.168 0.768 3.712 0.768 7.488z m-686.528 0q0 3.84-0.768 7.488-0.704 3.712-2.176 7.232-1.472 3.52-3.52 6.656-2.112 3.136-4.8 5.76-2.688 2.688-5.76 4.8-3.2 2.112-6.72 3.584-3.456 1.408-7.168 2.176-3.712 0.704-7.488 0.704-3.84 0-7.488-0.704-3.712-0.768-7.232-2.176-3.456-1.472-6.656-3.584-3.136-2.112-5.76-4.736-2.688-2.688-4.8-5.824-2.112-3.2-3.584-6.656-1.408-3.52-2.176-7.232-0.704-3.648-0.704-7.488 0-3.776 0.704-7.488 0.768-3.712 2.176-7.168 1.472-3.52 3.584-6.656 2.112-3.136 4.736-5.76 2.688-2.752 5.824-4.8 3.2-2.112 6.656-3.584 3.52-1.472 7.232-2.176 3.712-0.768 7.488-0.768 3.776 0 7.488 0.768 3.712 0.704 7.168 2.176 3.52 1.472 6.656 3.584 3.2 2.048 5.824 4.736 2.688 2.688 4.8 5.824 2.048 3.2 3.52 6.656 1.472 3.456 2.176 7.168 0.768 3.712 0.768 7.488zM652.032 211.2l-369.92 370.368v89.344h90.048l369.664-369.856L652.032 211.2z m-54.4-54.272q22.528-22.528 54.4-22.528 31.808 0 54.336 22.528l89.792 89.856q22.464 22.464 22.464 54.272t-22.464 54.272l-369.664 369.856q-22.464 22.528-54.336 22.528H282.24q-31.808 0-54.336-22.528-22.464-22.464-22.464-54.272V581.568q0-31.808 22.4-54.272l369.92-370.368z" p-id="6607"></path></svg>
