<svg t="1724133395728" class="icon" viewBox="0 0 1024 1024" version="1.1" xmlns="http://www.w3.org/2000/svg" p-id="2893" width="32" height="32"><path d="M512 226.8476541a19.82487759 19.82487759 0 0 1 14.66497778 5.70304692c3.80203107 3.82918865 5.70304692 8.71751457 5.70304693 14.66497779v122.20814825a19.82487759 19.82487759 0 0 1-5.70304693 14.66497778 19.82487759 19.82487759 0 0 1-14.66497778 5.70304691 19.82487759 19.82487759 0 0 1-14.66497778-5.70304691 19.82487759 19.82487759 0 0 1-5.70304693-14.66497778v-122.20814825a19.82487759 19.82487759 0 0 1 5.70304693-14.66497779 19.82487759 19.82487759 0 0 1 14.66497778-5.70304692z m0 407.36049415a19.82487759 19.82487759 0 0 1 14.66497778 5.70304691c3.80203107 3.82918865 5.70304692 8.71751457 5.70304693 14.66497778v122.20814827a19.82487759 19.82487759 0 0 1-5.70304693 14.66497776 19.82487759 19.82487759 0 0 1-14.66497778 5.70304693 19.82487759 19.82487759 0 0 1-14.66497778-5.70304693 19.82487759 19.82487759 0 0 1-5.70304693-14.66497776v-122.20814827a19.82487759 19.82487759 0 0 1 5.70304693-14.66497778 19.82487759 19.82487759 0 0 1 14.66497778-5.70304691zM797.1523459 512a19.82487759 19.82487759 0 0 1-5.70304692 14.66497778 19.82487759 19.82487759 0 0 1-14.66497779 5.70304693h-122.20814825a19.82487759 19.82487759 0 0 1-14.66497778-5.70304693 19.82487759 19.82487759 0 0 1-5.70304691-14.66497778 19.82487759 19.82487759 0 0 1 5.70304691-14.66497778 19.82487759 19.82487759 0 0 1 14.66497778-5.70304693h122.20814825a19.82487759 19.82487759 0 0 1 14.66497779 5.70304693c3.80203107 3.82918865 5.70304692 8.71751457 5.70304692 14.66497778z m-407.36049415 0a19.82487759 19.82487759 0 0 1-5.70304691 14.66497778 19.82487759 19.82487759 0 0 1-14.66497778 5.70304693h-122.20814827a19.82487759 19.82487759 0 0 1-14.66497776-5.70304693 19.82487759 19.82487759 0 0 1-5.70304693-14.66497778 19.82487759 19.82487759 0 0 1 5.70304693-14.66497778 19.82487759 19.82487759 0 0 1 14.66497776-5.70304693h122.20814827a19.82487759 19.82487759 0 0 1 14.66497778 5.70304693c3.80203107 3.82918865 5.70304692 8.71751457 5.70304691 14.66497778zM310.22076878 310.22076878a21.29137537 21.29137537 0 0 1 14.66497779-5.70304693c5.51294514 0 10.18401235 1.90101585 14.01320099 5.70304693l86.55052591 86.57768347a20.91117183 20.91117183 0 0 1 5.73020449 14.31193182 19.28172983 19.28172983 0 0 1-6.05609289 14.013201 19.11878565 19.11878565 0 0 1-14.013201 6.05609289 20.96548698 20.96548698 0 0 1-14.31193182-5.70304692L310.22076878 338.87178998a19.06447114 19.06447114 0 0 1-5.70304693-14.01320099c0-5.54010272 1.90101585-10.42842865 5.70304693-14.66497778z m288.32975775 288.32975775a19.79772001 19.79772001 0 0 1 14.3390894-6.35482371c5.29568642 0 10.04822572 2.11827457 14.31193182 6.38198066l86.57768347 86.55052651c3.80203107 3.80203107 5.70304692 8.47309828 5.70304691 14.01320102a19.55330372 19.55330372 0 0 1-6.05609225 14.31193182 19.66193339 19.66193339 0 0 1-14.31193245 6.05609288 19.01015661 19.01015661 0 0 1-14.01320099-5.70304692l-86.55052591-86.57768347a19.79772001 19.79772001 0 0 1-6.38198129-14.31193245c0-5.29568642 2.11827457-10.07538268 6.38198129-14.33908939zM713.77923122 310.22076878c3.80203107 4.26370672 5.70304692 9.15203265 5.70304693 14.66497779s-1.90101585 10.18401235-5.70304693 14.01320099l-86.57768347 86.55052591a20.91117183 20.91117183 0 0 1-14.31193182 5.73020449 19.28172983 19.28172983 0 0 1-14.013201-6.05609289 19.11878565 19.11878565 0 0 1-6.05609289-14.013201c0-5.29568642 1.90101585-10.07538268 5.70304692-14.31193182l86.57768348-86.57768347c3.80203107-3.80203107 8.50025585-5.70304692 14.01320099-5.70304693 5.54010272 0 10.40127108 1.90101585 14.66497779 5.70304693zM425.44947347 598.57768347a19.79772001 19.79772001 0 0 1 6.35482371 14.33908939c0 5.29568642-2.11827457 10.04822572-6.38198066 14.31193245L338.89894756 713.77923122a19.06447114 19.06447114 0 0 1-14.01320099 5.70304693 19.55330372 19.55330372 0 0 1-14.31193245-6.05609227 19.68909035 19.68909035 0 0 1-6.05609227-14.31193245 19.01015661 19.01015661 0 0 1 5.70304693-14.01320099l86.57768347-86.55052591a19.79772001 19.79772001 0 0 1 14.31193182-6.38198129c5.29568642 0 10.07538268 2.11827457 14.3390894 6.38198129z" fill="#000000" fill-opacity=".65" p-id="2894"></path></svg>
