<svg t="1755138507987" class="icon" viewBox="0 0 1024 1024" version="1.1" xmlns="http://www.w3.org/2000/svg" p-id="5079" width="200" height="200"><path d="M512 938.688a42.688 42.688 0 0 1-35.072-18.432l-192-277.312A42.56 42.56 0 0 1 320 576h384a42.752 42.752 0 0 1 35.072 66.944l-192 277.312a42.688 42.688 0 0 1-35.072 18.432" fill="currentColor" p-id="2016"></path><path d="M704 448H320a42.752 42.752 0 0 1-35.072-66.944l192-277.312c16-23.04 54.208-23.04 70.144 0l192 277.312A42.56 42.56 0 0 1 704 448" fill="currentColor" p-id="2015"></path></svg>
